G04 #@! TF.GenerationSoftware,KiCad,Pcbnew,9.0.0*
G04 #@! TF.CreationDate,2025-02-25T00:04:40+01:00*
G04 #@! TF.ProjectId,alu_logic,616c755f-6c6f-4676-9963-2e6b69636164,PC-01-A*
G04 #@! TF.SameCoordinates,Original*
G04 #@! TF.FileFunction,Legend,Bot*
G04 #@! TF.FilePolarity,Positive*
%FSLAX46Y46*%
G04 Gerber Fmt 4.6, Leading zero omitted, Abs format (unit mm)*
G04 Created by KiCad (PCBNEW 9.0.0) date 2025-02-25 00:04:40*
%MOMM*%
%LPD*%
G01*
G04 APERTURE LIST*
G04 Aperture macros list*
%AMRoundRect*
0 Rectangle with rounded corners*
0 $1 Rounding radius*
0 $2 $3 $4 $5 $6 $7 $8 $9 X,Y pos of 4 corners*
0 Add a 4 corners polygon primitive as box body*
4,1,4,$2,$3,$4,$5,$6,$7,$8,$9,$2,$3,0*
0 Add four circle primitives for the rounded corners*
1,1,$1+$1,$2,$3*
1,1,$1+$1,$4,$5*
1,1,$1+$1,$6,$7*
1,1,$1+$1,$8,$9*
0 Add four rect primitives between the rounded corners*
20,1,$1+$1,$2,$3,$4,$5,0*
20,1,$1+$1,$4,$5,$6,$7,0*
20,1,$1+$1,$6,$7,$8,$9,0*
20,1,$1+$1,$8,$9,$2,$3,0*%
G04 Aperture macros list end*
%ADD10RoundRect,0.250000X-0.950000X-0.550000X0.950000X-0.550000X0.950000X0.550000X-0.950000X0.550000X0*%
%ADD11O,2.400000X1.600000*%
%ADD12RoundRect,0.250000X0.950000X0.550000X-0.950000X0.550000X-0.950000X-0.550000X0.950000X-0.550000X0*%
%ADD13RoundRect,0.250000X0.600000X0.600000X-0.600000X0.600000X-0.600000X-0.600000X0.600000X-0.600000X0*%
%ADD14C,1.700000*%
%ADD15C,0.800000*%
%ADD16C,6.400000*%
%ADD17RoundRect,0.250000X-0.600000X-0.600000X0.600000X-0.600000X0.600000X0.600000X-0.600000X0.600000X0*%
%ADD18RoundRect,0.250000X0.600000X-0.600000X0.600000X0.600000X-0.600000X0.600000X-0.600000X-0.600000X0*%
G04 APERTURE END LIST*
%LPC*%
D10*
G04 #@! TO.C,U9*
X67310000Y-69850000D03*
D11*
X67310000Y-72390000D03*
X67310000Y-74930000D03*
X67310000Y-77470000D03*
X67310000Y-80010000D03*
X67310000Y-82550000D03*
X67310000Y-85090000D03*
X74930000Y-85090000D03*
X74930000Y-82550000D03*
X74930000Y-80010000D03*
X74930000Y-77470000D03*
X74930000Y-74930000D03*
X74930000Y-72390000D03*
X74930000Y-69850000D03*
G04 #@! TD*
D12*
G04 #@! TO.C,U6*
X114300000Y-54610000D03*
D11*
X114300000Y-52070000D03*
X114300000Y-49530000D03*
X114300000Y-46990000D03*
X114300000Y-44450000D03*
X114300000Y-41910000D03*
X114300000Y-39370000D03*
X106680000Y-39370000D03*
X106680000Y-41910000D03*
X106680000Y-44450000D03*
X106680000Y-46990000D03*
X106680000Y-49530000D03*
X106680000Y-52070000D03*
X106680000Y-54610000D03*
G04 #@! TD*
D10*
G04 #@! TO.C,U7*
X102870000Y-69850000D03*
D11*
X102870000Y-72390000D03*
X102870000Y-74930000D03*
X102870000Y-77470000D03*
X102870000Y-80010000D03*
X102870000Y-82550000D03*
X102870000Y-85090000D03*
X110490000Y-85090000D03*
X110490000Y-82550000D03*
X110490000Y-80010000D03*
X110490000Y-77470000D03*
X110490000Y-74930000D03*
X110490000Y-72390000D03*
X110490000Y-69850000D03*
G04 #@! TD*
D10*
G04 #@! TO.C,U1*
X54610000Y-76200000D03*
D11*
X54610000Y-78740000D03*
X54610000Y-81280000D03*
X54610000Y-83820000D03*
X54610000Y-86360000D03*
X54610000Y-88900000D03*
X54610000Y-91440000D03*
X54610000Y-93980000D03*
X54610000Y-96520000D03*
X54610000Y-99060000D03*
X62230000Y-99060000D03*
X62230000Y-96520000D03*
X62230000Y-93980000D03*
X62230000Y-91440000D03*
X62230000Y-88900000D03*
X62230000Y-86360000D03*
X62230000Y-83820000D03*
X62230000Y-81280000D03*
X62230000Y-78740000D03*
X62230000Y-76200000D03*
G04 #@! TD*
D13*
G04 #@! TO.C,DATA_BUS1*
X54610000Y-54610000D03*
D14*
X52070000Y-54610000D03*
X54610000Y-52070000D03*
X52070000Y-52070000D03*
X54610000Y-49530000D03*
X52070000Y-49530000D03*
X54610000Y-46990000D03*
X52070000Y-46990000D03*
X54610000Y-44450000D03*
X52070000Y-44450000D03*
X54610000Y-41910000D03*
X52070000Y-41910000D03*
X54610000Y-39370000D03*
X52070000Y-39370000D03*
X54610000Y-36830000D03*
X52070000Y-36830000D03*
G04 #@! TD*
D15*
G04 #@! TO.C,H3*
X133490000Y-118110000D03*
X134192944Y-116412944D03*
X134192944Y-119807056D03*
X135890000Y-115710000D03*
D16*
X135890000Y-118110000D03*
D15*
X135890000Y-120510000D03*
X137587056Y-116412944D03*
X137587056Y-119807056D03*
X138290000Y-118110000D03*
G04 #@! TD*
D17*
G04 #@! TO.C,ADDRESS_BUS1*
X125730000Y-36830000D03*
D14*
X128270000Y-36830000D03*
X125730000Y-39370000D03*
X128270000Y-39370000D03*
X125730000Y-41910000D03*
X128270000Y-41910000D03*
X125730000Y-44450000D03*
X128270000Y-44450000D03*
X125730000Y-46990000D03*
X128270000Y-46990000D03*
X125730000Y-49530000D03*
X128270000Y-49530000D03*
X125730000Y-52070000D03*
X128270000Y-52070000D03*
X125730000Y-54610000D03*
X128270000Y-54610000D03*
G04 #@! TD*
D15*
G04 #@! TO.C,H1*
X42050000Y-26670000D03*
X42752944Y-24972944D03*
X42752944Y-28367056D03*
X44450000Y-24270000D03*
D16*
X44450000Y-26670000D03*
D15*
X44450000Y-29070000D03*
X46147056Y-24972944D03*
X46147056Y-28367056D03*
X46850000Y-26670000D03*
G04 #@! TD*
G04 #@! TO.C,H2*
X133490000Y-26670000D03*
X134192944Y-24972944D03*
X134192944Y-28367056D03*
X135890000Y-24270000D03*
D16*
X135890000Y-26670000D03*
D15*
X135890000Y-29070000D03*
X137587056Y-24972944D03*
X137587056Y-28367056D03*
X138290000Y-26670000D03*
G04 #@! TD*
G04 #@! TO.C,H4*
X42050000Y-118110000D03*
X42752944Y-116412944D03*
X42752944Y-119807056D03*
X44450000Y-115710000D03*
D16*
X44450000Y-118110000D03*
D15*
X44450000Y-120510000D03*
X46147056Y-116412944D03*
X46147056Y-119807056D03*
X46850000Y-118110000D03*
G04 #@! TD*
D10*
G04 #@! TO.C,U3*
X107315000Y-90170000D03*
D11*
X107315000Y-92710000D03*
X107315000Y-95250000D03*
X107315000Y-97790000D03*
X107315000Y-100330000D03*
X107315000Y-102870000D03*
X107315000Y-105410000D03*
X114935000Y-105410000D03*
X114935000Y-102870000D03*
X114935000Y-100330000D03*
X114935000Y-97790000D03*
X114935000Y-95250000D03*
X114935000Y-92710000D03*
X114935000Y-90170000D03*
G04 #@! TD*
D10*
G04 #@! TO.C,U2*
X102870000Y-90170000D03*
D11*
X102870000Y-92710000D03*
X102870000Y-95250000D03*
X102870000Y-97790000D03*
X102870000Y-100330000D03*
X102870000Y-102870000D03*
X102870000Y-105410000D03*
X110490000Y-105410000D03*
X110490000Y-102870000D03*
X110490000Y-100330000D03*
X110490000Y-97790000D03*
X110490000Y-95250000D03*
X110490000Y-92710000D03*
X110490000Y-90170000D03*
G04 #@! TD*
D10*
G04 #@! TO.C,U8*
X107315000Y-69850000D03*
D11*
X107315000Y-72390000D03*
X107315000Y-74930000D03*
X107315000Y-77470000D03*
X107315000Y-80010000D03*
X107315000Y-82550000D03*
X107315000Y-85090000D03*
X114935000Y-85090000D03*
X114935000Y-82550000D03*
X114935000Y-80010000D03*
X114935000Y-77470000D03*
X114935000Y-74930000D03*
X114935000Y-72390000D03*
X114935000Y-69850000D03*
G04 #@! TD*
D18*
G04 #@! TO.C,J1*
X85090000Y-36830000D03*
D14*
X85090000Y-34290000D03*
X87630000Y-36830000D03*
X87630000Y-34290000D03*
X90170000Y-36830000D03*
X90170000Y-34290000D03*
X92710000Y-36830000D03*
X92710000Y-34290000D03*
X95250000Y-36830000D03*
X95250000Y-34290000D03*
G04 #@! TD*
D10*
G04 #@! TO.C,U5*
X90170000Y-76200000D03*
D11*
X90170000Y-78740000D03*
X90170000Y-81280000D03*
X90170000Y-83820000D03*
X90170000Y-86360000D03*
X90170000Y-88900000D03*
X90170000Y-91440000D03*
X90170000Y-93980000D03*
X90170000Y-96520000D03*
X90170000Y-99060000D03*
X97790000Y-99060000D03*
X97790000Y-96520000D03*
X97790000Y-93980000D03*
X97790000Y-91440000D03*
X97790000Y-88900000D03*
X97790000Y-86360000D03*
X97790000Y-83820000D03*
X97790000Y-81280000D03*
X97790000Y-78740000D03*
X97790000Y-76200000D03*
G04 #@! TD*
D10*
G04 #@! TO.C,U4*
X67310000Y-90170000D03*
D11*
X67310000Y-92710000D03*
X67310000Y-95250000D03*
X67310000Y-97790000D03*
X67310000Y-100330000D03*
X67310000Y-102870000D03*
X67310000Y-105410000D03*
X74930000Y-105410000D03*
X74930000Y-102870000D03*
X74930000Y-100330000D03*
X74930000Y-97790000D03*
X74930000Y-95250000D03*
X74930000Y-92710000D03*
X74930000Y-90170000D03*
G04 #@! TD*
D12*
G04 #@! TO.C,U10*
X75565000Y-54610000D03*
D11*
X75565000Y-52070000D03*
X75565000Y-49530000D03*
X75565000Y-46990000D03*
X75565000Y-44450000D03*
X75565000Y-41910000D03*
X75565000Y-39370000D03*
X67945000Y-39370000D03*
X67945000Y-41910000D03*
X67945000Y-44450000D03*
X67945000Y-46990000D03*
X67945000Y-49530000D03*
X67945000Y-52070000D03*
X67945000Y-54610000D03*
G04 #@! TD*
%LPD*%
M02*
